PathFileType	4	(X/Y/Z)	C:\Users\Basilio\Documents\Thesis Gigler\squatting_fais\c3dfiles\076\SLS_back_pre1\markers_experimental.trc
DataRate	CameraRate	NumFrames	NumMarkers	Units	OrigDataRate	OrigDataStartFrame	OrigNumFrames
200.000000	200.000000	4	61	mm	200.000000	1155	2311
Frame#	Time	FHD			LBHD			RBHD			C7			T10			CLAV			LSHO			LUUPA			LMUPA			LDUPA			LLEP			LMEP			LRAD			LUL			LRFIN			RSHO			RUPA1			RMUPA			RDUPA			RLEP			RMEP			RRAD			RUL			RUFIN			LASI			RASI			USACR			LSACR			RSACR			LTHI1			LTHI2			LTHI3			LTHI4			LLFC			LMFC			LTIB1			LTIB2			LTIB3			LTIB4			LLMAL			LMMAL			LHEE			LMT1			LMT2			LMT5			RTHI			RTHI2			RTHI3			RTHI4			RLFC			RMFC			RTIB1			RTIB2			RTIB3			RTIB4			RLMAL			RMMAL			RHEE			RMT1			RMT2			RMT5			
		X1	Y1	Z1	X2	Y2	Z2	X3	Y3	Z3	X4	Y4	Z4	X5	Y5	Z5	X6	Y6	Z6	X7	Y7	Z7	X8	Y8	Z8	X9	Y9	Z9	X10	Y10	Z10	X11	Y11	Z11	X12	Y12	Z12	X13	Y13	Z13	X14	Y14	Z14	X15	Y15	Z15	X16	Y16	Z16	X17	Y17	Z17	X18	Y18	Z18	X19	Y19	Z19	X20	Y20	Z20	X21	Y21	Z21	X22	Y22	Z22	X23	Y23	Z23	X24	Y24	Z24	X25	Y25	Z25	X26	Y26	Z26	X27	Y27	Z27	X28	Y28	Z28	X29	Y29	Z29	X30	Y30	Z30	X31	Y31	Z31	X32	Y32	Z32	X33	Y33	Z33	X34	Y34	Z34	X35	Y35	Z35	X36	Y36	Z36	X37	Y37	Z37	X38	Y38	Z38	X39	Y39	Z39	X40	Y40	Z40	X41	Y41	Z41	X42	Y42	Z42	X43	Y43	Z43	X44	Y44	Z44	X45	Y45	Z45	X46	Y46	Z46	X47	Y47	Z47	X48	Y48	Z48	X49	Y49	Z49	X50	Y50	Z50	X51	Y51	Z51	X52	Y52	Z52	X53	Y53	Z53	X54	Y54	Z54	X55	Y55	Z55	X56	Y56	Z56	X57	Y57	Z57	X58	Y58	Z58	X59	Y59	Z59	X60	Y60	Z60	X61	Y61	Z61	

1156	5.775	-238.6377105712891	1637.7568359375	-1015.918884277344	-381.7061767578126	1564.130249023438	-1103.206176757813	-358.8770446777344	1569.39697265625	-952.629821777344	-423.1763610839845	1446.148559570313	-1021.811889648438	-458.4859924316407	1129.715576171875	-1027.091430664063	-292.1546020507813	1367.950317382813	-1033.872192382813	-365.8794555664063	1398.285400390625	-1192.462524414063	-252.3451080322266	1294.991455078125	-1296.27685546875	-208.6180877685547	1304.137939453125	-1274.674682617188	-196.3580780029297	1267.047973632813	-1323.564331054688	-157.1209716796875	1230.99560546875	-1341.724487304688	-157.1207427978516	1174.558471679688	-1284.4287109375	90.4712600708008	1193.08984375	-1326.754028320313	78.97743988037111	1186.748046875	-1391.1171875	171.3606414794922	1195.932861328125	-1342.855590820313	-337.7601013183594	1387.063842773438	-871.5817871093752	-220.8077239990235	1272.800048828125	-785.045104980469	-179.1283874511719	1296.787719726563	-796.8383789062502	-157.0909729003907	1243.394409179688	-776.965270996094	-95.32796478271486	1227.986694335938	-775.0103149414065	-102.4578323364258	1182.498901367188	-837.1634521484377	140.5194091796875	1164.17333984375	-807.4556274414065	126.0127334594727	1152.72998046875	-742.8958740234376	214.7794036865235	1159.863037109375	-786.4674072265627	-295.2921752929688	947.1584472656252	-1128.966796875	-293.6957702636719	955.2725830078127	-912.1574707031252	-461.4268798828126	1019.004577636719	-1019.0625	-469.2004699707032	989.526794433594	-1045.731323242188	-468.3808898925782	989.4125976562502	-989.2532958984377	-371.6429138183594	787.0418090820315	-1182.996948242188	-342.1843872070313	707.9645385742189	-1174.6796875	-292.5249633789063	712.4221801757814	-1167.341674804688	-369.3805847167969	657.4939575195314	-1154.234497070313	-360.1084594726563	498.9537963867189	-1116.0693359375	-329.8379211425782	505.6844482421876	-1001.271911621094	-323.8816528320313	361.6510314941407	-1031.243286132813	-344.3954467773438	301.6194763183594	-1093.032958984375	-315.9799194335938	308.3717651367188	-1055.09619140625	-329.9034423828126	235.4733276367188	-1015.765563964844	-386.9353027343751	107.4768218994141	-1055.416748046875	-358.8759155273438	123.0261611938477	-977.665466308594	-442.7669677734376	96.85493469238284	-1007.151916503906	-242.1206359863282	51.45237350463869	-993.2885742187502	-236.1909484863282	50.05100631713869	-1032.25732421875	-260.7676696777344	44.26334381103516	-1082.686157226563	-273.9783325195313	743.3723144531251	-805.0524902343752	-210.9284667968751	714.7059326171876	-795.8405761718752	-182.3621215820313	729.7088012695314	-808.232604980469	-200.9082946777344	630.2429809570314	-797.3701171875002	-185.4460754394532	592.5559082031251	-802.1827392578127	-157.0335235595703	574.9930419921876	-920.0299072265627	-265.0621643066407	505.3661193847657	-839.4595947265627	-363.8027954101563	552.4468994140626	-835.336608886719	-352.7045288085938	507.4071044921876	-842.5156250000002	-385.2410583496095	483.1475830078126	-885.6538085937502	-536.5581665039064	507.7474365234376	-883.8687744140627	-501.0303344726564	489.1739807128907	-960.3286743164065	-555.9473266601564	561.3474121093751	-934.4046630859377	-544.1116333007814	358.4806518554688	-963.0314941406252	-550.6151733398439	349.4245605468751	-917.7581176757815	-585.8032836914064	373.0936279296876	-872.3765258789065	
1157	5.78	-238.3020477294922	1637.71044921875	-1015.829467773438	-381.5207824707032	1564.162475585938	-1103.195068359375	-358.6364135742188	1569.309448242188	-952.6563720703127	-422.8567810058595	1446.188720703125	-1021.872375488281	-458.5165405273439	1129.785400390625	-1027.212768554688	-291.8174438476563	1367.899047851563	-1033.887939453125	-365.3662109375001	1398.301025390625	-1192.446166992188	-252.3600769042969	1295.365356445313	-1296.397827148438	-208.2214660644532	1304.43505859375	-1274.671752929688	-195.8993530273438	1267.376708984375	-1323.704711914063	-156.6853179931641	1231.425048828125	-1341.9501953125	-156.7410125732422	1175.080200195313	-1284.93408203125	91.01009368896486	1193.718017578125	-1327.072265625	79.23056030273439	1187.338012695313	-1391.29931640625	171.6231384277344	1196.621459960938	-1343.234252929688	-337.5226135253907	1387.09619140625	-871.6273193359377	-220.6732330322266	1272.864990234375	-785.0985107421877	-179.0196075439453	1296.931884765625	-796.8367919921877	-156.9751434326172	1243.611328125	-776.881774902344	-95.12297821044923	1228.173095703125	-774.8433837890627	-102.2416305541992	1182.761352539063	-837.4530029296877	140.7861022949219	1164.651489257813	-807.3137817382815	126.2432174682617	1153.188354492188	-742.7039794921876	214.9688262939454	1160.535522460938	-786.3349609375002	-295.3904724121094	947.0354614257815	-1128.877807617188	-294.0359497070313	955.229187011719	-912.067077636719	-461.4924316406251	1018.996398925781	-1019.152282714844	-469.3484191894532	989.6176757812502	-1045.788696289063	-468.5968627929689	989.551940917969	-989.380554199219	-372.1896972656251	787.1553955078127	-1183.125366210938	-341.1031494140626	707.7329711914064	-1174.566162109375	-292.4847717285157	712.3769531250001	-1167.16796875	-369.2404479980469	657.4473876953126	-1154.339721679688	-360.0228881835938	498.9043273925782	-1116.164184570313	-329.9430541992188	505.7115783691407	-1001.192321777344	-324.1537170410157	361.3368225097657	-1031.389282226563	-344.3125000000001	301.4435729980469	-1093.012084960938	-315.9384765625001	308.3551025390626	-1054.873779296875	-329.8953857421876	235.4583129882813	-1015.684143066406	-386.9512329101564	107.4408187866211	-1055.376586914063	-358.9278869628907	122.9929885864258	-977.6422119140627	-442.7188415527345	96.8002853393555	-1007.164184570313	-242.1269683837891	51.338436126709	-993.3013305664065	-236.1171875000001	50.09172821044923	-1032.244995117188	-260.8108215332032	44.2959098815918	-1082.638427734375	-274.2815856933594	743.3495483398439	-805.122009277344	-211.2676239013672	714.6414794921876	-796.0579223632815	-182.7344970703125	729.5332031250001	-808.4189453125002	-201.2728729248047	630.1858520507814	-797.5484619140627	-185.8372344970703	592.4577026367189	-802.3956298828127	-157.4820251464844	574.8411254882814	-920.2402954101565	-265.5337829589844	505.3706054687501	-839.725769042969	-364.2438354492188	552.6327514648439	-835.6059570312502	-353.1773071289063	507.6823120117189	-842.6816406250002	-385.7339477539064	483.2383422851564	-885.8609619140627	-537.0113525390626	508.0178833007814	-884.0776367187502	-499.983123779297	488.7859497070314	-959.683776855469	-556.4549560546876	561.6710205078126	-934.4851074218752	-544.6124267578126	358.7746582031251	-963.3460083007815	-551.0873413085939	349.6945190429688	-918.1118164062502	-586.2404174804689	373.4108276367188	-872.6326904296877	
1158	5.785	-238.0222625732422	1637.62939453125	-1015.714721679688	-381.1881103515626	1564.18896484375	-1103.363891601563	-358.4021606445313	1569.203735351563	-952.6583251953127	-422.5567321777345	1446.195922851563	-1021.990173339844	-458.5677185058595	1129.846801757813	-1027.270263671875	-291.5727539062501	1367.80517578125	-1033.860595703125	-364.8686523437501	1398.330078125	-1192.4560546875	-252.0266418457032	1295.594970703125	-1296.469970703125	-207.8329315185547	1304.71630859375	-1274.775024414063	-195.5448150634766	1267.785034179688	-1323.848754882813	-156.1876220703125	1231.873168945313	-1342.170776367188	-156.2288360595703	1175.438842773438	-1285.151611328125	91.54055023193361	1194.247924804688	-1327.337524414063	79.81497192382814	1187.993286132813	-1391.687255859375	172.1304931640625	1197.223754882813	-1343.397094726563	-337.3883361816407	1387.110717773438	-871.7039184570315	-220.4839324951172	1273.013671875	-785.0556640625002	-178.9041595458985	1297.180297851563	-796.736999511719	-156.8200988769532	1243.729370117188	-776.8828125000002	-94.93337249755861	1228.371459960938	-774.8382568359377	-101.9954528808594	1182.8681640625	-837.347595214844	141.0185852050782	1165.086181640625	-807.253356933594	126.6039199829102	1153.752563476563	-742.5815429687501	215.202133178711	1161.156494140625	-786.104675292969	-295.5238647460938	947.002380371094	-1128.720947265625	-294.3228454589844	955.1470336914065	-911.9947509765627	-461.5711975097657	1018.992431640625	-1019.280639648438	-469.5508422851564	989.692321777344	-1045.91552734375	-468.8226318359376	989.631286621094	-989.4882812500002	-371.6559753417969	786.990905761719	-1182.931762695313	-341.4163513183594	707.7714843750001	-1174.633422851563	-292.4705505371094	712.4353027343751	-1167.158447265625	-369.1775512695313	657.4169921875001	-1154.382568359375	-359.7372436523438	498.8613281250001	-1116.212524414063	-329.9439392089844	505.737274169922	-1001.198608398438	-324.4102478027344	360.9570922851563	-1031.46923828125	-344.0006408691407	301.2031555175782	-1092.9443359375	-315.8435668945313	308.3436584472657	-1054.811645507813	-329.8795776367188	235.4067382812501	-1015.611206054688	-386.8637084960939	107.5140914916992	-1055.389404296875	-358.9629211425782	122.98046875	-977.5769653320315	-442.7196350097657	96.82456970214847	-1007.152587890625	-242.1432037353516	51.2838478088379	-993.3071289062502	-236.1630859375001	50.11120986938478	-1032.226684570313	-260.7406005859376	44.26398468017579	-1082.656616210938	-274.5511169433594	743.3495483398439	-805.136169433594	-211.5802917480469	714.6459960937501	-796.2066650390627	-183.0337982177735	729.4658203125001	-808.6718750000002	-201.6999664306641	630.1188964843751	-797.7360839843752	-186.3092193603516	592.3432617187501	-802.4190063476565	-158.6969451904297	574.7731933593751	-920.5977172851565	-266.1265869140626	505.3613891601564	-839.8611450195315	-364.7114257812501	552.8210449218751	-835.8753051757815	-353.6522521972657	507.8730468750001	-842.7961425781252	-386.2858276367189	483.2694091796876	-886.0574340820315	-537.4738769531251	508.1744384765626	-884.2361450195315	-501.0061035156251	489.2823181152345	-960.180358886719	-557.0562744140626	561.8341674804689	-934.6146240234377	-544.9592895507814	359.0595397949219	-963.6000976562502	-551.7686767578126	350.2310791015626	-917.9329833984377	-586.6664428710939	373.5994262695313	-872.9917602539065	
1159	5.79	-237.7771759033204	1637.66015625	-1015.621032714844	-380.8175048828126	1564.114379882813	-1103.379150390625	-358.1172485351563	1569.110473632813	-952.7337646484377	-422.2330322265626	1446.246704101563	-1022.040893554688	-458.6041564941407	1129.907592773438	-1027.324951171875	-291.3355407714844	1367.71826171875	-1033.820068359375	-364.4104614257813	1398.260131835938	-1192.365600585938	-251.6323699951172	1295.805908203125	-1296.547119140625	-207.4145050048829	1304.999877929688	-1274.8798828125	-195.1769104003907	1267.62451171875	-1323.715209960938	-156.6769409179688	1232.343383789063	-1342.483642578125	-155.8005981445313	1175.500122070313	-1285.276489257813	91.92964172363283	1194.350219726563	-1327.658081054688	81.02314758300783	1188.67529296875	-1391.986572265625	172.7248229980469	1197.901123046875	-1343.73095703125	-337.1526489257813	1387.122436523438	-871.7868652343752	-220.3808593750001	1273.052612304688	-785.040222167969	-178.7723083496094	1297.340087890625	-796.7456665039065	-156.6989288330078	1243.9150390625	-776.8516845703127	-94.70583343505861	1228.594848632813	-774.6864013671877	-101.7122802734375	1182.997436523438	-837.0022583007815	141.2906188964844	1165.46826171875	-807.172302246094	126.8837585449219	1154.163330078125	-742.4372558593751	215.3878021240235	1161.842407226563	-785.9207763671877	-295.6369018554688	946.943786621094	-1128.699584960938	-294.6263732910157	955.0534667968752	-911.9412841796877	-461.8423461914064	1019.120788574219	-1019.302429199219	-469.738739013672	989.8743896484377	-1045.99072265625	-469.0573730468751	989.762634277344	-989.5314941406252	-372.2695007324219	787.048767089844	-1183.138671875	-341.3725280761719	707.7125854492189	-1174.71826171875	-292.4667663574219	712.4265136718751	-1167.119140625	-369.2848205566407	657.3673095703126	-1154.401733398438	-359.5415039062501	498.8635559082032	-1116.24560546875	-329.9466552734376	505.7446289062501	-1001.198547363281	-323.9557189941407	361.2971496582032	-1031.258056640625	-343.8881530761719	301.1477355957032	-1092.92333984375	-315.7809143066407	308.2221069335938	-1054.917724609375	-329.8092651367188	235.4637908935547	-1015.562744140625	-386.9315795898439	107.5083465576172	-1055.403686523438	-359.0017395019532	122.9638137817383	-977.5720214843752	-442.7173461914064	96.77972412109378	-1007.165588378906	-241.6953735351563	51.9274368286133	-992.9835205078127	-236.2014160156251	50.13298416137697	-1032.170532226563	-260.7833251953126	44.32050323486329	-1082.573364257813	-274.8955078125001	743.2800903320314	-805.2190551757815	-211.9563751220704	714.5364379882814	-796.367370605469	-183.377914428711	729.4777832031251	-808.834655761719	-202.1420898437501	630.1044311523439	-797.800720214844	-186.6917419433594	592.2522583007814	-802.7686767578127	-158.223388671875	574.4384155273439	-920.5269775390627	-266.6707458496094	505.3698730468751	-840.0751953125002	-365.2304077148438	552.9414062500001	-836.1047973632815	-354.1658020019532	507.978973388672	-842.9661254882815	-386.8744506835939	483.2978820800782	-886.238220214844	-537.9155883789064	508.2723083496095	-884.4147949218752	-501.4710083007814	489.4508666992189	-960.3254394531252	-557.6545410156251	561.9686889648439	-934.7532348632815	-545.3928222656251	359.2370605468751	-963.9199829101565	-552.1104736328126	350.3598937988282	-918.341735839844	-587.2075805664064	373.6035156250001	-873.4534912109377	
